<svg height="10000" version="1.1" width="10000" xmlns="http://www.w3.org/2000/svg" style="overflow: hidden; position: relative; top: -0.5px;"><desc style="-webkit-tap-highlight-color: rgba(0, 0, 0, 0);">Created with Raphaël 2.1.2</desc><defs style="-webkit-tap-highlight-color: rgba(0, 0, 0, 0);"></defs><path fill="none" stroke="#bf2f2f" d="M471,8C511,8,296,134,336,134" stroke-width="4" stroke-linecap="round" style="-webkit-tap-highlight-color: rgba(0, 0, 0, 0); stroke-linecap: round;"></path><path fill="none" stroke="#cccccc" d="M471,8L511,8M296,134L336,134" stroke-dasharray="1,3" style="-webkit-tap-highlight-color: rgba(0, 0, 0, 0);"></path><circle cx="471" cy="8" r="5" fill="#000000" stroke="none" style="-webkit-tap-highlight-color: rgba(0, 0, 0, 0);"></circle><circle cx="511" cy="8" r="5" fill="#000000" stroke="none" style="-webkit-tap-highlight-color: rgba(0, 0, 0, 0);"></circle><circle cx="296" cy="134" r="5" fill="#000000" stroke="none" style="-webkit-tap-highlight-color: rgba(0, 0, 0, 0);"></circle><circle cx="336" cy="134" r="5" fill="#000000" stroke="none" style="-webkit-tap-highlight-color: rgba(0, 0, 0, 0);"></circle><path fill="none" stroke="#a22fbf" d="M337,135C350,147,350,161,380,182" stroke-width="4" stroke-linecap="round" style="-webkit-tap-highlight-color: rgba(0, 0, 0, 0); stroke-linecap: round;"></path><path fill="none" stroke="#cccccc" d="M337,135L350,147M350,161L380,182" stroke-dasharray="1,3" style="-webkit-tap-highlight-color: rgba(0, 0, 0, 0);"></path><circle cx="337" cy="135" r="5" fill="#000000" stroke="none" style="-webkit-tap-highlight-color: rgba(0, 0, 0, 0);"></circle><circle cx="350" cy="147" r="5" fill="#000000" stroke="none" style="-webkit-tap-highlight-color: rgba(0, 0, 0, 0);"></circle><circle cx="350" cy="161" r="5" fill="#000000" stroke="none" style="-webkit-tap-highlight-color: rgba(0, 0, 0, 0);"></circle><circle cx="380" cy="182" r="5" fill="#000000" stroke="none" style="-webkit-tap-highlight-color: rgba(0, 0, 0, 0);"></circle><path fill="none" stroke="#4cbf2f" d="M482,118C439,144,414,164,380,184" stroke-width="4" stroke-linecap="round" style="-webkit-tap-highlight-color: rgba(0, 0, 0, 0); stroke-linecap: round;"></path><path fill="none" stroke="#cccccc" d="M482,118L439,144M414,164L380,184" stroke-dasharray="1,3" style="-webkit-tap-highlight-color: rgba(0, 0, 0, 0);"></path><circle cx="482" cy="118" r="5" fill="#000000" stroke="none" style="-webkit-tap-highlight-color: rgba(0, 0, 0, 0);"></circle><circle cx="439" cy="144" r="5" fill="#000000" stroke="none" style="-webkit-tap-highlight-color: rgba(0, 0, 0, 0);"></circle><circle cx="414" cy="164" r="5" fill="#000000" stroke="none" style="-webkit-tap-highlight-color: rgba(0, 0, 0, 0);"></circle><circle cx="380" cy="184" r="5" fill="#000000" stroke="none" style="-webkit-tap-highlight-color: rgba(0, 0, 0, 0);"></circle><path fill="none" stroke="#2f69bf" d="M482,120C482,141,481,187,482,216" stroke-width="4" stroke-linecap="round" style="-webkit-tap-highlight-color: rgba(0, 0, 0, 0); stroke-linecap: round;"></path><path fill="none" stroke="#cccccc" d="M482,120L482,141M481,187L482,216" stroke-dasharray="1,3" style="-webkit-tap-highlight-color: rgba(0, 0, 0, 0);"></path><circle cx="482" cy="120" r="5" fill="#000000" stroke="none" style="-webkit-tap-highlight-color: rgba(0, 0, 0, 0);"></circle><circle cx="482" cy="141" r="5" fill="#000000" stroke="none" style="-webkit-tap-highlight-color: rgba(0, 0, 0, 0);"></circle><circle cx="481" cy="187" r="5" fill="#000000" stroke="none" style="-webkit-tap-highlight-color: rgba(0, 0, 0, 0);"></circle><circle cx="482" cy="216" r="5" fill="#000000" stroke="none" style="-webkit-tap-highlight-color: rgba(0, 0, 0, 0);"></circle><path fill="none" stroke="#bf852f" d="M484,220C484,231,485,307,486,322" stroke-width="4" stroke-linecap="round" style="-webkit-tap-highlight-color: rgba(0, 0, 0, 0); stroke-linecap: round;"></path><path fill="none" stroke="#cccccc" d="M484,220L484,231M485,307L486,322" stroke-dasharray="1,3" style="-webkit-tap-highlight-color: rgba(0, 0, 0, 0);"></path><circle cx="484" cy="220" r="5" fill="#000000" stroke="none" style="-webkit-tap-highlight-color: rgba(0, 0, 0, 0);"></circle><circle cx="484" cy="231" r="5" fill="#000000" stroke="none" style="-webkit-tap-highlight-color: rgba(0, 0, 0, 0);"></circle><circle cx="485" cy="307" r="5" fill="#000000" stroke="none" style="-webkit-tap-highlight-color: rgba(0, 0, 0, 0);"></circle><circle cx="486" cy="322" r="5" fill="#000000" stroke="none" style="-webkit-tap-highlight-color: rgba(0, 0, 0, 0);"></circle></svg>